<?xml version="1.0" standalone="no"?>
<!DOCTYPE svg PUBLIC "-//W3C//DTD SVG 20010904//EN"
 "http://www.w3.org/TR/2001/REC-SVG-20010904/DTD/svg10.dtd">
<svg version="1.0" xmlns="http://www.w3.org/2000/svg"
 width="1280.000000pt" height="1280.000000pt" viewBox="0 0 1280.000000 1280.000000"
 preserveAspectRatio="xMidYMid meet">
<metadata>
Created by potrace 1.16, written by Peter Selinger 2001-2019
</metadata>
<g transform="translate(0.000000,1280.000000) scale(0.100000,-0.100000)"
fill="#000000" stroke="none">
<path d="M8910 9339 c-822 -650 -1927 -1522 -2455 -1937 -528 -416 -992 -788
-1031 -827 -79 -78 -120 -150 -109 -192 11 -47 75 -131 148 -196 40 -35 358
-289 707 -564 349 -274 1162 -915 1805 -1423 2488 -1964 2434 -1922 2470
-1916 51 10 123 62 155 112 65 103 60 -203 57 4059 -3 3571 -4 3872 -19 3901
-24 44 -88 99 -157 134 -33 16 -64 30 -68 30 -4 0 -681 -532 -1503 -1181z"/>
<path d="M2342 10494 c-33 -7 -73 -19 -89 -28 -44 -22 -91 -80 -101 -123 -5
-22 -8 -1707 -8 -3928 1 -3235 3 -3899 15 -3944 18 -71 62 -120 121 -133 49
-11 1817 -22 1883 -11 59 9 99 42 132 108 l30 60 3 3909 c1 2718 -1 3920 -8
3948 -25 90 -76 115 -294 142 -159 20 -1588 19 -1684 0z"/>
</g>
</svg>
