<svg width="56" height="56" viewBox="0 0 56 56" fill="none" xmlns="http://www.w3.org/2000/svg">
<path d="M46.5806 44.6338C46.7512 45.4169 46.1606 45.745 45.5481 46.0031C38.43 40.39 31.325 34.7638 24.2025 29.1594C23.8218 28.84 23.4062 28.5031 23.2443 28.0088C23.4018 27.4881 23.8393 27.1512 24.2287 26.8188C31.36 21.2187 38.4562 15.575 45.5875 9.97937C46.7031 10.2594 46.6375 11.34 46.6068 12.2719C46.5675 23.0606 46.6243 33.8494 46.5806 44.6338Z" fill="white"/>
<path d="M18.6069 45.7056C16.5987 46.2569 14.3544 45.7756 12.2544 45.9506C11.2219 45.8981 9.13937 46.3444 9.41499 44.6469C9.38437 33.7006 9.42375 22.7544 9.3975 11.8081C9.45875 11.2612 9.29249 10.2725 10.1019 10.2375C12.7006 10.1106 15.3125 10.1806 17.9112 10.1981C19.0925 10.0712 18.9219 11.4756 18.935 12.2412C18.9087 22.7412 18.9175 33.2456 18.935 43.7456C18.8081 44.3712 19.1537 45.2506 18.6069 45.7056Z" fill="white"/>
</svg>
