<svg width="96" height="96" viewBox="0 0 96 96" fill="none" xmlns="http://www.w3.org/2000/svg">
<path d="M39.8304 4.6368C50.5248 2.592 61.9584 4.6656 71.1936 10.4544C82.032 17.0976 89.712 28.6272 91.5936 41.2032C93.3504 52.1952 90.7104 63.792 84.384 72.9408C76.7424 84.2304 63.6192 91.6032 49.9872 92.0736C36.4128 92.784 22.7424 86.7072 14.112 76.2336C5.24161 65.7888 1.81441 51.0624 5.06881 37.7568C8.83201 21.1584 23.0784 7.6224 39.8304 4.6368ZM32.64 30.72C32.64 42.24 32.64 53.76 32.64 65.28C35.8368 65.28 39.0336 65.28 42.24 65.28C42.24 53.76 42.24 42.24 42.24 30.72C39.0432 30.72 35.8368 30.72 32.64 30.72ZM53.76 30.72C53.76 42.24 53.76 53.76 53.76 65.28C56.9568 65.28 60.1536 65.28 63.36 65.28C63.36 53.76 63.36 42.24 63.36 30.72C60.1536 30.72 56.9568 30.72 53.76 30.72Z" fill="white"/>
</svg>
