<?xml version="1.0" encoding="UTF-8" ?>
<!DOCTYPE svg PUBLIC "-//W3C//DTD SVG 1.1//EN" "http://www.w3.org/Graphics/SVG/1.1/DTD/svg11.dtd">
<svg width="100pt" height="100pt" viewBox="0 0 100 100" version="1.1" xmlns="http://www.w3.org/2000/svg">
<g id="#000000ff">
<path fill="#000000" opacity="1.00" d=" M 41.49 4.83 C 52.63 2.70 64.54 4.86 74.16 10.89 C 85.45 17.81 93.45 29.82 95.41 42.92 C 97.24 54.37 94.49 66.45 87.90 75.98 C 79.94 87.74 66.27 95.42 52.07 95.91 C 37.93 96.65 23.69 90.32 14.70 79.41 C 5.46 68.53 1.89 53.19 5.28 39.33 C 9.20 22.04 24.04 7.94 41.49 4.83 M 34.00 32.00 C 34.00 44.00 34.00 56.00 34.00 68.00 C 37.33 68.00 40.66 68.00 44.00 68.00 C 44.00 56.00 44.00 44.00 44.00 32.00 C 40.67 32.00 37.33 32.00 34.00 32.00 M 56.00 32.00 C 56.00 44.00 56.00 56.00 56.00 68.00 C 59.33 68.00 62.66 68.00 66.00 68.00 C 66.00 56.00 66.00 44.00 66.00 32.00 C 62.66 32.00 59.33 32.00 56.00 32.00 Z" />
</g>
</svg>
