<?xml version="1.0" encoding="UTF-8" ?>
<!DOCTYPE svg PUBLIC "-//W3C//DTD SVG 1.1//EN" "http://www.w3.org/Graphics/SVG/1.1/DTD/svg11.dtd">
<svg width="100pt" height="100pt" viewBox="0 0 100 100" version="1.1" xmlns="http://www.w3.org/2000/svg">
<g id="#000000ff">
<path fill="#000000" opacity="1.00" d=" M 41.51 4.82 C 52.43 2.75 64.07 4.78 73.58 10.54 C 85.17 17.42 93.44 29.61 95.42 42.95 C 97.49 55.83 93.68 69.47 85.28 79.44 C 77.16 89.26 64.80 95.45 52.04 95.91 C 37.93 96.65 23.71 90.32 14.72 79.43 C 5.29 68.35 1.77 52.64 5.47 38.58 C 9.63 21.61 24.32 7.89 41.51 4.82 M 36.08 72.04 C 48.75 64.73 61.36 57.33 73.98 49.93 C 61.32 42.61 48.63 35.34 35.93 28.09 C 35.96 42.74 36.04 57.39 36.08 72.04 Z" />
</g>
</svg>
