<svg width="96" height="96" viewBox="0 0 96 96" fill="none" xmlns="http://www.w3.org/2000/svg">
<path d="M39.8495 4.6272C50.3327 2.64 61.5071 4.5888 70.6367 10.1184C81.7631 16.7232 89.7023 28.4256 91.6031 41.232C93.5903 53.5968 89.9327 66.6912 81.8687 76.2624C74.0735 85.6896 62.208 91.632 49.9584 92.0736C36.4128 92.784 22.7616 86.7072 14.1312 76.2528C5.07835 65.616 1.69915 50.5344 5.25115 37.0368C9.24475 20.7456 23.3471 7.5744 39.8495 4.6272ZM34.6368 69.1584C46.8 62.1408 58.9056 55.0368 71.0208 47.9328C58.8672 40.9056 46.6847 33.9264 34.4928 26.9664C34.5215 41.0304 34.5984 55.0944 34.6368 69.1584Z" fill="white"/>
</svg>
