<?xml version="1.0" encoding="UTF-8" ?>
<!DOCTYPE svg PUBLIC "-//W3C//DTD SVG 1.1//EN" "http://www.w3.org/Graphics/SVG/1.1/DTD/svg11.dtd">
<svg width="128pt" height="128pt" viewBox="0 0 128 128" version="1.1" xmlns="http://www.w3.org/2000/svg">
<g id="#000000ff">
<path fill="#000000" opacity="1.00" d=" M 21.53 25.98 C 21.14 24.19 22.49 23.44 23.89 22.85 C 40.16 35.68 56.40 48.54 72.68 61.35 C 73.55 62.08 74.50 62.85 74.87 63.98 C 74.51 65.17 73.51 65.94 72.62 66.70 C 56.32 79.50 40.10 92.40 23.80 105.19 C 21.25 104.55 21.40 102.08 21.47 99.95 C 21.56 75.29 21.43 50.63 21.53 25.98 Z" />
<path fill="#000000" opacity="1.00" d=" M 85.47 23.53 C 90.06 22.27 95.19 23.37 99.99 22.97 C 102.35 23.09 107.11 22.07 106.48 25.95 C 106.55 50.97 106.46 75.99 106.52 101.01 C 106.38 102.26 106.76 104.52 104.91 104.60 C 98.97 104.89 93.00 104.73 87.06 104.69 C 84.36 104.98 84.75 101.77 84.72 100.02 C 84.78 76.02 84.76 52.01 84.72 28.01 C 85.01 26.58 84.22 24.57 85.47 23.53 Z" />
</g>
</svg>
