<svg width="56" height="56" viewBox="0 0 56 56" fill="none" xmlns="http://www.w3.org/2000/svg">
<path d="M9.4194 11.3662C9.24878 10.5831 9.8394 10.255 10.4519 9.99687C17.57 15.61 24.675 21.2362 31.7975 26.8406C32.1782 27.16 32.5938 27.4969 32.7557 27.9912C32.5982 28.5119 32.1607 28.8488 31.7713 29.1812C24.64 34.7813 17.5438 40.425 10.4125 46.0206C9.2969 45.7406 9.36253 44.66 9.39315 43.7281C9.43253 32.9394 9.37565 22.1506 9.4194 11.3662Z" fill="white"/>
<path d="M37.3931 10.2944C39.4013 9.74312 41.6456 10.2244 43.7456 10.0494C44.7781 10.1019 46.8606 9.65562 46.585 11.3531C46.6156 22.2994 46.5763 33.2456 46.6025 44.1919C46.5413 44.7387 46.7075 45.7275 45.8981 45.7625C43.2994 45.8894 40.6875 45.8194 38.0888 45.8019C36.9075 45.9287 37.0781 44.5244 37.065 43.7587C37.0913 33.2587 37.0825 22.7544 37.065 12.2544C37.1919 11.6287 36.8463 10.7494 37.3931 10.2944Z" fill="white"/>
</svg>
